Travel writer Lemuel Gulliver takes an assignment in Bermuda, but ends up on the island of Liliput, where he towers over its tiny citizens.



Jack Black	 ...	Lemuel Gulliver
Jason Segel	 ...	Horatio
Emily Blunt	 ...	Princess Mary
Amanda Peet	 ...	Darcy Silverman
Billy Connolly	 ...	King Theodore
Chris O'Dowd	 ...	General Edward
T.J. Miller	 ...	Dan
James Corden	 ...	Jinks
Catherine Tate	 ...	Queen Isabelle
Emmanuel Quatra	 ...	King Leopold


Format                           : AVI
Format/Info                      : Audio Video Interleave
File size                        : 798 MiB
Duration                         : 1h 21mn
Overall bit rate                 : 1 374 Kbps
Writing application              : VirtualDubMod 1.5.4.1 (build 2178/release)
Writing library                  : VirtualDubMod build 2178/release

Video
ID                               : 0
Format                           : MPEG-4 Visual
Format profile                   : Advanced Simple@L5
Format settings, BVOP            : 1
Format settings, QPel            : No
Format settings, GMC             : No warppoints
Format settings, Matrix          : Custom
Codec ID                         : XVID
Codec ID/Hint                    : XviD
Duration                         : 1h 21mn
Bit rate                         : 1 175 Kbps
Width                            : 720 pixels
Height                           : 304 pixels
Display aspect ratio             : 2.35:1
Frame rate                       : 25.000 fps
Color space                      : YUV
Chroma subsampling               : 4:2:0
Bit depth                        : 8 bits
Scan type                        : Progressive
Compression mode                 : Lossy
Bits/(Pixel*Frame)               : 0.215
Stream size                      : 682 MiB (85%)
Writing library                  : XviD 1.2.1 (UTC 2008-12-04)

Audio
ID                               : 1
Format                           : MPEG Audio
Format version                   : Version 1
Format profile                   : Layer 3
Mode                             : Joint stereo
Mode extension                   : MS Stereo
Codec ID                         : 55
Codec ID/Hint                    : MP3
Duration                         : 1h 21mn
Bit rate mode                    : Constant
Bit rate                         : 192 Kbps
Channel(s)                       : 2 channels
Sampling rate                    : 44.1 KHz
Compression mode                 : Lossy
Stream size                      : 112 MiB (14%)
Alignment                        : Split accross interleaves
Interleave, duration             : 80 ms (2.00 video frames)
Interleave, preload duration     : 500 ms
Writing library                  : LAME3.97


 
http://img209.imageshack.us/img209/6362/vlcsnap2011020502h52m25.png 
http://img826.imageshack.us/img826/9209/vlcsnap2011020502h52m29.png 
http://img148.imageshack.us/img148/7117/vlcsnap2011020502h53m25.png